<svg xmlns="http://www.w3.org/2000/svg" width="1000" height="1000" viewBox="0 0 1000 1000">
<title>Filter: Halftone</title>
<style>
.d{transform-box:fill-box;transform-origin:center;animation:swell 3.4s ease-in-out infinite;will-change:transform}
@keyframes swell{0%,100%{transform:scale(1)}45%{transform:scale(1.34)}}
.sheen{animation:sweep 5.5s ease-in-out infinite}
@keyframes sweep{0%,100%{transform:translateX(-140px)}50%{transform:translateX(140px)}}
.cap{font-family:'SUSE Mono',ui-monospace,Menlo,monospace}
@media (prefers-reduced-motion:reduce){.d{animation:none}.sheen{animation:none;opacity:0}}
</style>
<rect width="1000" height="1000" fill="#0c322c"/>
<rect width="1000" height="1000" fill="#08251f" opacity="0.55"/>
<g>
<circle class="d" cx="70.0" cy="70.0" r="1.8" fill="#124a39" style="animation-delay:0.00s"/>
<circle class="d" cx="113.0" cy="70.0" r="1.9" fill="#134b3a" style="animation-delay:-0.09s"/>
<circle class="d" cx="156.0" cy="70.0" r="2.0" fill="#134d3b" style="animation-delay:-0.17s"/>
<circle class="d" cx="199.0" cy="70.0" r="2.1" fill="#134e3c" style="animation-delay:-0.26s"/>
<circle class="d" cx="242.0" cy="70.0" r="2.2" fill="#144f3c" style="animation-delay:-0.34s"/>
<circle class="d" cx="285.0" cy="70.0" r="2.3" fill="#14513d" style="animation-delay:-0.42s"/>
<circle class="d" cx="328.0" cy="70.0" r="2.3" fill="#14523e" style="animation-delay:-0.51s"/>
<circle class="d" cx="371.0" cy="70.0" r="2.4" fill="#15533e" style="animation-delay:-0.59s"/>
<circle class="d" cx="414.0" cy="70.0" r="2.4" fill="#15543f" style="animation-delay:-0.68s"/>
<circle class="d" cx="457.0" cy="70.0" r="2.5" fill="#15543f" style="animation-delay:-0.77s"/>
<circle class="d" cx="500.0" cy="70.0" r="2.5" fill="#15543f" style="animation-delay:-0.85s"/>
<circle class="d" cx="543.0" cy="70.0" r="2.5" fill="#15543f" style="animation-delay:-0.94s"/>
<circle class="d" cx="586.0" cy="70.0" r="2.4" fill="#15543f" style="animation-delay:-1.02s"/>
<circle class="d" cx="629.0" cy="70.0" r="2.4" fill="#15533e" style="animation-delay:-1.10s"/>
<circle class="d" cx="672.0" cy="70.0" r="2.3" fill="#14523e" style="animation-delay:-1.19s"/>
<circle class="d" cx="715.0" cy="70.0" r="2.3" fill="#14513d" style="animation-delay:-1.27s"/>
<circle class="d" cx="758.0" cy="70.0" r="2.2" fill="#144f3c" style="animation-delay:-1.36s"/>
<circle class="d" cx="801.0" cy="70.0" r="2.1" fill="#134e3c" style="animation-delay:-1.44s"/>
<circle class="d" cx="844.0" cy="70.0" r="2.0" fill="#134d3b" style="animation-delay:-1.53s"/>
<circle class="d" cx="887.0" cy="70.0" r="1.9" fill="#134b3a" style="animation-delay:-1.61s"/>
<circle class="d" cx="930.0" cy="70.0" r="1.8" fill="#124a39" style="animation-delay:-1.70s"/>
<circle class="d" cx="70.0" cy="113.0" r="1.9" fill="#134b3a" style="animation-delay:-0.09s"/>
<circle class="d" cx="113.0" cy="113.0" r="2.0" fill="#134d3b" style="animation-delay:-0.17s"/>
<circle class="d" cx="156.0" cy="113.0" r="2.1" fill="#134e3c" style="animation-delay:-0.26s"/>
<circle class="d" cx="199.0" cy="113.0" r="2.2" fill="#14503d" style="animation-delay:-0.34s"/>
<circle class="d" cx="242.0" cy="113.0" r="2.3" fill="#14523e" style="animation-delay:-0.42s"/>
<circle class="d" cx="285.0" cy="113.0" r="2.4" fill="#15533f" style="animation-delay:-0.51s"/>
<circle class="d" cx="328.0" cy="113.0" r="2.5" fill="#15553f" style="animation-delay:-0.59s"/>
<circle class="d" cx="371.0" cy="113.0" r="2.6" fill="#155640" style="animation-delay:-0.68s"/>
<circle class="d" cx="414.0" cy="113.0" r="2.6" fill="#165741" style="animation-delay:-0.77s"/>
<circle class="d" cx="457.0" cy="113.0" r="2.7" fill="#165741" style="animation-delay:-0.85s"/>
<circle class="d" cx="500.0" cy="113.0" r="2.7" fill="#165841" style="animation-delay:-0.94s"/>
<circle class="d" cx="543.0" cy="113.0" r="2.7" fill="#165741" style="animation-delay:-1.02s"/>
<circle class="d" cx="586.0" cy="113.0" r="2.6" fill="#165741" style="animation-delay:-1.10s"/>
<circle class="d" cx="629.0" cy="113.0" r="2.6" fill="#155640" style="animation-delay:-1.19s"/>
<circle class="d" cx="672.0" cy="113.0" r="2.5" fill="#15553f" style="animation-delay:-1.27s"/>
<circle class="d" cx="715.0" cy="113.0" r="2.4" fill="#15533f" style="animation-delay:-1.36s"/>
<circle class="d" cx="758.0" cy="113.0" r="2.3" fill="#14523e" style="animation-delay:-1.44s"/>
<circle class="d" cx="801.0" cy="113.0" r="2.2" fill="#14503d" style="animation-delay:-1.53s"/>
<circle class="d" cx="844.0" cy="113.0" r="2.1" fill="#134e3c" style="animation-delay:-1.61s"/>
<circle class="d" cx="887.0" cy="113.0" r="2.0" fill="#134d3b" style="animation-delay:-1.70s"/>
<circle class="d" cx="930.0" cy="113.0" r="1.9" fill="#134b3a" style="animation-delay:-1.78s"/>
<circle class="d" cx="70.0" cy="156.0" r="2.0" fill="#134c3b" style="animation-delay:-0.17s"/>
<circle class="d" cx="113.0" cy="156.0" r="2.1" fill="#134e3c" style="animation-delay:-0.26s"/>
<circle class="d" cx="156.0" cy="156.0" r="2.2" fill="#14503d" style="animation-delay:-0.34s"/>
<circle class="d" cx="199.0" cy="156.0" r="2.3" fill="#14523e" style="animation-delay:-0.42s"/>
<circle class="d" cx="242.0" cy="156.0" r="2.5" fill="#15543f" style="animation-delay:-0.51s"/>
<circle class="d" cx="285.0" cy="156.0" r="2.6" fill="#155640" style="animation-delay:-0.59s"/>
<circle class="d" cx="328.0" cy="156.0" r="2.7" fill="#165841" style="animation-delay:-0.68s"/>
<circle class="d" cx="371.0" cy="156.0" r="2.8" fill="#165942" style="animation-delay:-0.77s"/>
<circle class="d" cx="414.0" cy="156.0" r="2.9" fill="#175a43" style="animation-delay:-0.85s"/>
<circle class="d" cx="457.0" cy="156.0" r="17.3" fill="#6ad8ac" style="animation-delay:-0.94s"/>
<circle class="d" cx="500.0" cy="156.0" r="16.6" fill="#62d4a4" style="animation-delay:-1.02s"/>
<circle class="d" cx="543.0" cy="156.0" r="14.9" fill="#4ec993" style="animation-delay:-1.10s"/>
<circle class="d" cx="586.0" cy="156.0" r="2.9" fill="#175a43" style="animation-delay:-1.19s"/>
<circle class="d" cx="629.0" cy="156.0" r="2.8" fill="#165942" style="animation-delay:-1.27s"/>
<circle class="d" cx="672.0" cy="156.0" r="2.7" fill="#165841" style="animation-delay:-1.36s"/>
<circle class="d" cx="715.0" cy="156.0" r="2.6" fill="#155640" style="animation-delay:-1.44s"/>
<circle class="d" cx="758.0" cy="156.0" r="2.5" fill="#15543f" style="animation-delay:-1.53s"/>
<circle class="d" cx="801.0" cy="156.0" r="2.3" fill="#14523e" style="animation-delay:-1.61s"/>
<circle class="d" cx="844.0" cy="156.0" r="2.2" fill="#14503d" style="animation-delay:-1.70s"/>
<circle class="d" cx="887.0" cy="156.0" r="2.1" fill="#134e3c" style="animation-delay:-1.78s"/>
<circle class="d" cx="930.0" cy="156.0" r="2.0" fill="#134c3b" style="animation-delay:-1.87s"/>
<circle class="d" cx="70.0" cy="199.0" r="2.1" fill="#134e3b" style="animation-delay:-0.26s"/>
<circle class="d" cx="113.0" cy="199.0" r="2.2" fill="#14503c" style="animation-delay:-0.34s"/>
<circle class="d" cx="156.0" cy="199.0" r="2.3" fill="#14523e" style="animation-delay:-0.42s"/>
<circle class="d" cx="199.0" cy="199.0" r="2.5" fill="#15543f" style="animation-delay:-0.51s"/>
<circle class="d" cx="242.0" cy="199.0" r="2.6" fill="#165640" style="animation-delay:-0.59s"/>
<circle class="d" cx="285.0" cy="199.0" r="2.8" fill="#165942" style="animation-delay:-0.68s"/>
<circle class="d" cx="328.0" cy="199.0" r="2.9" fill="#175b43" style="animation-delay:-0.77s"/>
<circle class="d" cx="371.0" cy="199.0" r="20.2" fill="#8deaca" style="animation-delay:-0.85s"/>
<circle class="d" cx="414.0" cy="199.0" r="20.0" fill="#8be8c9" style="animation-delay:-0.94s"/>
<circle class="d" cx="457.0" cy="199.0" r="19.3" fill="#83e4c1" style="animation-delay:-1.02s"/>
<circle class="d" cx="500.0" cy="199.0" r="18.3" fill="#76deb6" style="animation-delay:-1.10s"/>
<circle class="d" cx="543.0" cy="199.0" r="17.0" fill="#66d6a8" style="animation-delay:-1.19s"/>
<circle class="d" cx="586.0" cy="199.0" r="15.3" fill="#52cb96" style="animation-delay:-1.27s"/>
<circle class="d" cx="629.0" cy="199.0" r="13.0" fill="#38be7f" style="animation-delay:-1.36s"/>
<circle class="d" cx="672.0" cy="199.0" r="2.9" fill="#175b43" style="animation-delay:-1.44s"/>
<circle class="d" cx="715.0" cy="199.0" r="2.8" fill="#165942" style="animation-delay:-1.53s"/>
<circle class="d" cx="758.0" cy="199.0" r="2.6" fill="#165640" style="animation-delay:-1.61s"/>
<circle class="d" cx="801.0" cy="199.0" r="2.5" fill="#15543f" style="animation-delay:-1.70s"/>
<circle class="d" cx="844.0" cy="199.0" r="2.3" fill="#14523e" style="animation-delay:-1.78s"/>
<circle class="d" cx="887.0" cy="199.0" r="2.2" fill="#14503c" style="animation-delay:-1.87s"/>
<circle class="d" cx="930.0" cy="199.0" r="2.1" fill="#134e3b" style="animation-delay:-1.95s"/>
<circle class="d" cx="70.0" cy="242.0" r="2.1" fill="#144f3c" style="animation-delay:-0.34s"/>
<circle class="d" cx="113.0" cy="242.0" r="2.3" fill="#14513d" style="animation-delay:-0.42s"/>
<circle class="d" cx="156.0" cy="242.0" r="2.4" fill="#15533f" style="animation-delay:-0.51s"/>
<circle class="d" cx="199.0" cy="242.0" r="2.6" fill="#165640" style="animation-delay:-0.59s"/>
<circle class="d" cx="242.0" cy="242.0" r="2.8" fill="#165942" style="animation-delay:-0.68s"/>
<circle class="d" cx="285.0" cy="242.0" r="19.9" fill="#8ae8c8" style="animation-delay:-0.77s"/>
<circle class="d" cx="328.0" cy="242.0" r="20.4" fill="#90ebcd" style="animation-delay:-0.85s"/>
<circle class="d" cx="371.0" cy="242.0" r="20.4" fill="#90ebcd" style="animation-delay:-0.94s"/>
<circle class="d" cx="414.0" cy="242.0" r="20.4" fill="#8febcc" style="animation-delay:-1.02s"/>
<circle class="d" cx="457.0" cy="242.0" r="19.6" fill="#86e6c4" style="animation-delay:-1.10s"/>
<circle class="d" cx="500.0" cy="242.0" r="18.5" fill="#79dfb8" style="animation-delay:-1.19s"/>
<circle class="d" cx="543.0" cy="242.0" r="17.2" fill="#69d7ab" style="animation-delay:-1.27s"/>
<circle class="d" cx="586.0" cy="242.0" r="15.7" fill="#57ce9a" style="animation-delay:-1.36s"/>
<circle class="d" cx="629.0" cy="242.0" r="13.7" fill="#41c287" style="animation-delay:-1.44s"/>
<circle class="d" cx="672.0" cy="242.0" r="11.3" fill="#2eb274" style="animation-delay:-1.53s"/>
<circle class="d" cx="715.0" cy="242.0" r="7.5" fill="#269664" style="animation-delay:-1.61s"/>
<circle class="d" cx="758.0" cy="242.0" r="2.8" fill="#165942" style="animation-delay:-1.70s"/>
<circle class="d" cx="801.0" cy="242.0" r="2.6" fill="#165640" style="animation-delay:-1.78s"/>
<circle class="d" cx="844.0" cy="242.0" r="2.4" fill="#15533f" style="animation-delay:-1.87s"/>
<circle class="d" cx="887.0" cy="242.0" r="2.3" fill="#14513d" style="animation-delay:-1.95s"/>
<circle class="d" cx="930.0" cy="242.0" r="2.1" fill="#144f3c" style="animation-delay:-2.04s"/>
<circle class="d" cx="70.0" cy="285.0" r="2.2" fill="#14503d" style="animation-delay:-0.42s"/>
<circle class="d" cx="113.0" cy="285.0" r="2.4" fill="#15523e" style="animation-delay:-0.51s"/>
<circle class="d" cx="156.0" cy="285.0" r="2.5" fill="#155540" style="animation-delay:-0.59s"/>
<circle class="d" cx="199.0" cy="285.0" r="2.7" fill="#165841" style="animation-delay:-0.68s"/>
<circle class="d" cx="242.0" cy="285.0" r="19.1" fill="#80e3bf" style="animation-delay:-0.77s"/>
<circle class="d" cx="285.0" cy="285.0" r="20.4" fill="#90ebcd" style="animation-delay:-0.85s"/>
<circle class="d" cx="328.0" cy="285.0" r="20.4" fill="#90ebcd" style="animation-delay:-0.94s"/>
<circle class="d" cx="371.0" cy="285.0" r="20.4" fill="#90ebcd" style="animation-delay:-1.02s"/>
<circle class="d" cx="414.0" cy="285.0" r="20.1" fill="#8de9ca" style="animation-delay:-1.10s"/>
<circle class="d" cx="457.0" cy="285.0" r="19.3" fill="#82e4c1" style="animation-delay:-1.19s"/>
<circle class="d" cx="500.0" cy="285.0" r="18.2" fill="#75ddb5" style="animation-delay:-1.27s"/>
<circle class="d" cx="543.0" cy="285.0" r="16.9" fill="#66d5a8" style="animation-delay:-1.36s"/>
<circle class="d" cx="586.0" cy="285.0" r="15.4" fill="#54cc98" style="animation-delay:-1.44s"/>
<circle class="d" cx="629.0" cy="285.0" r="13.6" fill="#3fc285" style="animation-delay:-1.53s"/>
<circle class="d" cx="672.0" cy="285.0" r="11.4" fill="#2eb374" style="animation-delay:-1.61s"/>
<circle class="d" cx="715.0" cy="285.0" r="8.6" fill="#299e68" style="animation-delay:-1.70s"/>
<circle class="d" cx="758.0" cy="285.0" r="3.8" fill="#207d56" style="animation-delay:-1.78s"/>
<circle class="d" cx="801.0" cy="285.0" r="2.7" fill="#165841" style="animation-delay:-1.87s"/>
<circle class="d" cx="844.0" cy="285.0" r="2.5" fill="#155540" style="animation-delay:-1.95s"/>
<circle class="d" cx="887.0" cy="285.0" r="2.4" fill="#15523e" style="animation-delay:-2.04s"/>
<circle class="d" cx="930.0" cy="285.0" r="2.2" fill="#14503d" style="animation-delay:-2.13s"/>
<circle class="d" cx="70.0" cy="328.0" r="2.3" fill="#14513d" style="animation-delay:-0.51s"/>
<circle class="d" cx="113.0" cy="328.0" r="2.4" fill="#15533f" style="animation-delay:-0.59s"/>
<circle class="d" cx="156.0" cy="328.0" r="2.6" fill="#165640" style="animation-delay:-0.68s"/>
<circle class="d" cx="199.0" cy="328.0" r="2.8" fill="#175a42" style="animation-delay:-0.77s"/>
<circle class="d" cx="242.0" cy="328.0" r="20.1" fill="#8de9ca" style="animation-delay:-0.85s"/>
<circle class="d" cx="285.0" cy="328.0" r="20.4" fill="#90ebcd" style="animation-delay:-0.94s"/>
<circle class="d" cx="328.0" cy="328.0" r="20.4" fill="#90ebcd" style="animation-delay:-1.02s"/>
<circle class="d" cx="371.0" cy="328.0" r="20.3" fill="#8eeacb" style="animation-delay:-1.10s"/>
<circle class="d" cx="414.0" cy="328.0" r="19.6" fill="#86e6c4" style="animation-delay:-1.19s"/>
<circle class="d" cx="457.0" cy="328.0" r="18.7" fill="#7be0ba" style="animation-delay:-1.27s"/>
<circle class="d" cx="500.0" cy="328.0" r="17.6" fill="#6ed9af" style="animation-delay:-1.36s"/>
<circle class="d" cx="543.0" cy="328.0" r="16.3" fill="#5ed2a1" style="animation-delay:-1.44s"/>
<circle class="d" cx="586.0" cy="328.0" r="14.8" fill="#4dc992" style="animation-delay:-1.53s"/>
<circle class="d" cx="629.0" cy="328.0" r="13.1" fill="#39bf80" style="animation-delay:-1.61s"/>
<circle class="d" cx="672.0" cy="328.0" r="11.0" fill="#2db072" style="animation-delay:-1.70s"/>
<circle class="d" cx="715.0" cy="328.0" r="8.4" fill="#289d68" style="animation-delay:-1.78s"/>
<circle class="d" cx="758.0" cy="328.0" r="4.9" fill="#22845a" style="animation-delay:-1.87s"/>
<circle class="d" cx="801.0" cy="328.0" r="2.8" fill="#175a42" style="animation-delay:-1.95s"/>
<circle class="d" cx="844.0" cy="328.0" r="2.6" fill="#165640" style="animation-delay:-2.04s"/>
<circle class="d" cx="887.0" cy="328.0" r="2.4" fill="#15533f" style="animation-delay:-2.13s"/>
<circle class="d" cx="930.0" cy="328.0" r="2.3" fill="#14513d" style="animation-delay:-2.21s"/>
<circle class="d" cx="70.0" cy="371.0" r="2.3" fill="#14513e" style="animation-delay:-0.59s"/>
<circle class="d" cx="113.0" cy="371.0" r="2.5" fill="#15543f" style="animation-delay:-0.68s"/>
<circle class="d" cx="156.0" cy="371.0" r="2.7" fill="#165841" style="animation-delay:-0.77s"/>
<circle class="d" cx="199.0" cy="371.0" r="17.8" fill="#70dab0" style="animation-delay:-0.85s"/>
<circle class="d" cx="242.0" cy="371.0" r="19.8" fill="#89e7c7" style="animation-delay:-0.94s"/>
<circle class="d" cx="285.0" cy="371.0" r="20.1" fill="#8de9ca" style="animation-delay:-1.02s"/>
<circle class="d" cx="328.0" cy="371.0" r="20.0" fill="#8ae8c8" style="animation-delay:-1.10s"/>
<circle class="d" cx="371.0" cy="371.0" r="19.5" fill="#84e5c3" style="animation-delay:-1.19s"/>
<circle class="d" cx="414.0" cy="371.0" r="18.8" fill="#7ce1bb" style="animation-delay:-1.27s"/>
<circle class="d" cx="457.0" cy="371.0" r="17.9" fill="#71dbb1" style="animation-delay:-1.36s"/>
<circle class="d" cx="500.0" cy="371.0" r="16.7" fill="#64d4a6" style="animation-delay:-1.44s"/>
<circle class="d" cx="543.0" cy="371.0" r="15.5" fill="#54cd98" style="animation-delay:-1.53s"/>
<circle class="d" cx="586.0" cy="371.0" r="14.0" fill="#43c489" style="animation-delay:-1.61s"/>
<circle class="d" cx="629.0" cy="371.0" r="12.2" fill="#30ba78" style="animation-delay:-1.70s"/>
<circle class="d" cx="672.0" cy="371.0" r="10.2" fill="#2caa6f" style="animation-delay:-1.78s"/>
<circle class="d" cx="715.0" cy="371.0" r="7.7" fill="#279865" style="animation-delay:-1.87s"/>
<circle class="d" cx="758.0" cy="371.0" r="4.5" fill="#218158" style="animation-delay:-1.95s"/>
<circle class="d" cx="801.0" cy="371.0" r="3.8" fill="#207d56" style="animation-delay:-2.04s"/>
<circle class="d" cx="844.0" cy="371.0" r="2.7" fill="#165841" style="animation-delay:-2.13s"/>
<circle class="d" cx="887.0" cy="371.0" r="2.5" fill="#15543f" style="animation-delay:-2.21s"/>
<circle class="d" cx="930.0" cy="371.0" r="2.3" fill="#14513e" style="animation-delay:-2.29s"/>
<circle class="d" cx="70.0" cy="414.0" r="2.3" fill="#14523e" style="animation-delay:-0.68s"/>
<circle class="d" cx="113.0" cy="414.0" r="2.5" fill="#155540" style="animation-delay:-0.77s"/>
<circle class="d" cx="156.0" cy="414.0" r="2.7" fill="#165841" style="animation-delay:-0.85s"/>
<circle class="d" cx="199.0" cy="414.0" r="17.8" fill="#70dbb1" style="animation-delay:-0.94s"/>
<circle class="d" cx="242.0" cy="414.0" r="19.1" fill="#7fe2be" style="animation-delay:-1.02s"/>
<circle class="d" cx="285.0" cy="414.0" r="19.3" fill="#82e4c0" style="animation-delay:-1.10s"/>
<circle class="d" cx="328.0" cy="414.0" r="19.0" fill="#7fe2be" style="animation-delay:-1.19s"/>
<circle class="d" cx="371.0" cy="414.0" r="18.5" fill="#78dfb8" style="animation-delay:-1.27s"/>
<circle class="d" cx="414.0" cy="414.0" r="17.8" fill="#70dab0" style="animation-delay:-1.36s"/>
<circle class="d" cx="457.0" cy="414.0" r="16.8" fill="#64d5a6" style="animation-delay:-1.44s"/>
<circle class="d" cx="500.0" cy="414.0" r="15.7" fill="#57ce9b" style="animation-delay:-1.53s"/>
<circle class="d" cx="543.0" cy="414.0" r="14.4" fill="#48c68d" style="animation-delay:-1.61s"/>
<circle class="d" cx="586.0" cy="414.0" r="12.9" fill="#37bd7e" style="animation-delay:-1.70s"/>
<circle class="d" cx="629.0" cy="414.0" r="11.2" fill="#2eb173" style="animation-delay:-1.78s"/>
<circle class="d" cx="672.0" cy="414.0" r="9.1" fill="#2aa26a" style="animation-delay:-1.87s"/>
<circle class="d" cx="715.0" cy="414.0" r="6.7" fill="#259060" style="animation-delay:-1.95s"/>
<circle class="d" cx="758.0" cy="414.0" r="3.8" fill="#207d56" style="animation-delay:-2.04s"/>
<circle class="d" cx="801.0" cy="414.0" r="3.8" fill="#207d56" style="animation-delay:-2.13s"/>
<circle class="d" cx="844.0" cy="414.0" r="2.7" fill="#165841" style="animation-delay:-2.21s"/>
<circle class="d" cx="887.0" cy="414.0" r="2.5" fill="#155540" style="animation-delay:-2.29s"/>
<circle class="d" cx="930.0" cy="414.0" r="2.3" fill="#14523e" style="animation-delay:-2.38s"/>
<circle class="d" cx="70.0" cy="457.0" r="2.4" fill="#15523e" style="animation-delay:-0.77s"/>
<circle class="d" cx="113.0" cy="457.0" r="2.5" fill="#155540" style="animation-delay:-0.85s"/>
<circle class="d" cx="156.0" cy="457.0" r="2.8" fill="#165942" style="animation-delay:-0.94s"/>
<circle class="d" cx="199.0" cy="457.0" r="16.9" fill="#65d5a7" style="animation-delay:-1.02s"/>
<circle class="d" cx="242.0" cy="457.0" r="18.0" fill="#72dcb2" style="animation-delay:-1.10s"/>
<circle class="d" cx="285.0" cy="457.0" r="18.1" fill="#74ddb4" style="animation-delay:-1.19s"/>
<circle class="d" cx="328.0" cy="457.0" r="17.8" fill="#71dbb1" style="animation-delay:-1.27s"/>
<circle class="d" cx="371.0" cy="457.0" r="17.3" fill="#6ad8ac" style="animation-delay:-1.36s"/>
<circle class="d" cx="414.0" cy="457.0" r="16.5" fill="#61d3a4" style="animation-delay:-1.44s"/>
<circle class="d" cx="457.0" cy="457.0" r="15.6" fill="#56cd9a" style="animation-delay:-1.53s"/>
<circle class="d" cx="500.0" cy="457.0" r="14.5" fill="#49c78e" style="animation-delay:-1.61s"/>
<circle class="d" cx="543.0" cy="457.0" r="13.1" fill="#3abf81" style="animation-delay:-1.70s"/>
<circle class="d" cx="586.0" cy="457.0" r="11.6" fill="#2fb575" style="animation-delay:-1.78s"/>
<circle class="d" cx="629.0" cy="457.0" r="9.8" fill="#2ba76d" style="animation-delay:-1.87s"/>
<circle class="d" cx="672.0" cy="457.0" r="7.8" fill="#279865" style="animation-delay:-1.95s"/>
<circle class="d" cx="715.0" cy="457.0" r="5.3" fill="#22865b" style="animation-delay:-2.04s"/>
<circle class="d" cx="758.0" cy="457.0" r="3.8" fill="#207d56" style="animation-delay:-2.13s"/>
<circle class="d" cx="801.0" cy="457.0" r="3.8" fill="#207d56" style="animation-delay:-2.21s"/>
<circle class="d" cx="844.0" cy="457.0" r="2.8" fill="#165942" style="animation-delay:-2.29s"/>
<circle class="d" cx="887.0" cy="457.0" r="2.5" fill="#155540" style="animation-delay:-2.38s"/>
<circle class="d" cx="930.0" cy="457.0" r="2.4" fill="#15523e" style="animation-delay:-2.46s"/>
<circle class="d" cx="70.0" cy="500.0" r="2.4" fill="#15523e" style="animation-delay:-0.85s"/>
<circle class="d" cx="113.0" cy="500.0" r="2.5" fill="#155540" style="animation-delay:-0.94s"/>
<circle class="d" cx="156.0" cy="500.0" r="2.8" fill="#165942" style="animation-delay:-1.02s"/>
<circle class="d" cx="199.0" cy="500.0" r="15.4" fill="#54cc98" style="animation-delay:-1.10s"/>
<circle class="d" cx="242.0" cy="500.0" r="16.6" fill="#61d3a4" style="animation-delay:-1.19s"/>
<circle class="d" cx="285.0" cy="500.0" r="16.7" fill="#63d4a5" style="animation-delay:-1.27s"/>
<circle class="d" cx="328.0" cy="500.0" r="16.5" fill="#60d3a3" style="animation-delay:-1.36s"/>
<circle class="d" cx="371.0" cy="500.0" r="15.9" fill="#5acf9d" style="animation-delay:-1.44s"/>
<circle class="d" cx="414.0" cy="500.0" r="15.2" fill="#51cb95" style="animation-delay:-1.53s"/>
<circle class="d" cx="457.0" cy="500.0" r="14.2" fill="#46c58b" style="animation-delay:-1.61s"/>
<circle class="d" cx="500.0" cy="500.0" r="13.0" fill="#38be7f" style="animation-delay:-1.70s"/>
<circle class="d" cx="543.0" cy="500.0" r="11.7" fill="#2fb575" style="animation-delay:-1.78s"/>
<circle class="d" cx="586.0" cy="500.0" r="10.1" fill="#2ca96f" style="animation-delay:-1.87s"/>
<circle class="d" cx="629.0" cy="500.0" r="8.3" fill="#289c67" style="animation-delay:-1.95s"/>
<circle class="d" cx="672.0" cy="500.0" r="6.2" fill="#248c5e" style="animation-delay:-2.04s"/>
<circle class="d" cx="715.0" cy="500.0" r="3.8" fill="#207d56" style="animation-delay:-2.13s"/>
<circle class="d" cx="758.0" cy="500.0" r="3.8" fill="#207d56" style="animation-delay:-2.21s"/>
<circle class="d" cx="801.0" cy="500.0" r="3.8" fill="#207d56" style="animation-delay:-2.29s"/>
<circle class="d" cx="844.0" cy="500.0" r="2.8" fill="#165942" style="animation-delay:-2.38s"/>
<circle class="d" cx="887.0" cy="500.0" r="2.5" fill="#155540" style="animation-delay:-2.46s"/>
<circle class="d" cx="930.0" cy="500.0" r="2.4" fill="#15523e" style="animation-delay:-2.55s"/>
<circle class="d" cx="70.0" cy="543.0" r="2.3" fill="#14523e" style="animation-delay:-0.94s"/>
<circle class="d" cx="113.0" cy="543.0" r="2.5" fill="#15553f" style="animation-delay:-1.02s"/>
<circle class="d" cx="156.0" cy="543.0" r="2.7" fill="#165841" style="animation-delay:-1.10s"/>
<circle class="d" cx="199.0" cy="543.0" r="13.3" fill="#3cc082" style="animation-delay:-1.19s"/>
<circle class="d" cx="242.0" cy="543.0" r="14.8" fill="#4dc992" style="animation-delay:-1.27s"/>
<circle class="d" cx="285.0" cy="543.0" r="15.1" fill="#50ca94" style="animation-delay:-1.36s"/>
<circle class="d" cx="328.0" cy="543.0" r="14.9" fill="#4dc992" style="animation-delay:-1.44s"/>
<circle class="d" cx="371.0" cy="543.0" r="14.3" fill="#47c68d" style="animation-delay:-1.53s"/>
<circle class="d" cx="414.0" cy="543.0" r="13.6" fill="#3ec185" style="animation-delay:-1.61s"/>
<circle class="d" cx="457.0" cy="543.0" r="12.6" fill="#33bc7b" style="animation-delay:-1.70s"/>
<circle class="d" cx="500.0" cy="543.0" r="11.4" fill="#2eb374" style="animation-delay:-1.78s"/>
<circle class="d" cx="543.0" cy="543.0" r="10.0" fill="#2ba86e" style="animation-delay:-1.87s"/>
<circle class="d" cx="586.0" cy="543.0" r="8.4" fill="#289c67" style="animation-delay:-1.95s"/>
<circle class="d" cx="629.0" cy="543.0" r="6.5" fill="#258f60" style="animation-delay:-2.04s"/>
<circle class="d" cx="672.0" cy="543.0" r="4.2" fill="#207f57" style="animation-delay:-2.13s"/>
<circle class="d" cx="715.0" cy="543.0" r="3.8" fill="#207d56" style="animation-delay:-2.21s"/>
<circle class="d" cx="758.0" cy="543.0" r="3.8" fill="#207d56" style="animation-delay:-2.29s"/>
<circle class="d" cx="801.0" cy="543.0" r="3.8" fill="#207d56" style="animation-delay:-2.38s"/>
<circle class="d" cx="844.0" cy="543.0" r="2.7" fill="#165841" style="animation-delay:-2.46s"/>
<circle class="d" cx="887.0" cy="543.0" r="2.5" fill="#15553f" style="animation-delay:-2.55s"/>
<circle class="d" cx="930.0" cy="543.0" r="2.3" fill="#14523e" style="animation-delay:-2.63s"/>
<circle class="d" cx="70.0" cy="586.0" r="2.3" fill="#14513d" style="animation-delay:-1.02s"/>
<circle class="d" cx="113.0" cy="586.0" r="2.5" fill="#15543f" style="animation-delay:-1.10s"/>
<circle class="d" cx="156.0" cy="586.0" r="2.7" fill="#165741" style="animation-delay:-1.19s"/>
<circle class="d" cx="199.0" cy="586.0" r="2.9" fill="#175b43" style="animation-delay:-1.27s"/>
<circle class="d" cx="242.0" cy="586.0" r="12.7" fill="#35bc7c" style="animation-delay:-1.36s"/>
<circle class="d" cx="285.0" cy="586.0" r="13.2" fill="#3abf81" style="animation-delay:-1.44s"/>
<circle class="d" cx="328.0" cy="586.0" r="13.0" fill="#38be7f" style="animation-delay:-1.53s"/>
<circle class="d" cx="371.0" cy="586.0" r="12.5" fill="#32bb7a" style="animation-delay:-1.61s"/>
<circle class="d" cx="414.0" cy="586.0" r="11.7" fill="#2fb676" style="animation-delay:-1.70s"/>
<circle class="d" cx="457.0" cy="586.0" r="10.7" fill="#2dae71" style="animation-delay:-1.78s"/>
<circle class="d" cx="500.0" cy="586.0" r="9.5" fill="#2aa56c" style="animation-delay:-1.87s"/>
<circle class="d" cx="543.0" cy="586.0" r="8.1" fill="#289a66" style="animation-delay:-1.95s"/>
<circle class="d" cx="586.0" cy="586.0" r="6.4" fill="#248e5f" style="animation-delay:-2.04s"/>
<circle class="d" cx="629.0" cy="586.0" r="4.3" fill="#218058" style="animation-delay:-2.13s"/>
<circle class="d" cx="672.0" cy="586.0" r="3.8" fill="#207d56" style="animation-delay:-2.21s"/>
<circle class="d" cx="715.0" cy="586.0" r="3.8" fill="#207d56" style="animation-delay:-2.29s"/>
<circle class="d" cx="758.0" cy="586.0" r="3.8" fill="#207d56" style="animation-delay:-2.38s"/>
<circle class="d" cx="801.0" cy="586.0" r="2.9" fill="#175b43" style="animation-delay:-2.46s"/>
<circle class="d" cx="844.0" cy="586.0" r="2.7" fill="#165741" style="animation-delay:-2.55s"/>
<circle class="d" cx="887.0" cy="586.0" r="2.5" fill="#15543f" style="animation-delay:-2.63s"/>
<circle class="d" cx="930.0" cy="586.0" r="2.3" fill="#14513d" style="animation-delay:-2.72s"/>
<circle class="d" cx="70.0" cy="629.0" r="2.2" fill="#14503d" style="animation-delay:-1.10s"/>
<circle class="d" cx="113.0" cy="629.0" r="2.4" fill="#15533e" style="animation-delay:-1.19s"/>
<circle class="d" cx="156.0" cy="629.0" r="2.6" fill="#165640" style="animation-delay:-1.27s"/>
<circle class="d" cx="199.0" cy="629.0" r="2.8" fill="#165942" style="animation-delay:-1.36s"/>
<circle class="d" cx="242.0" cy="629.0" r="9.8" fill="#2ba76d" style="animation-delay:-1.44s"/>
<circle class="d" cx="285.0" cy="629.0" r="10.8" fill="#2dae71" style="animation-delay:-1.53s"/>
<circle class="d" cx="328.0" cy="629.0" r="10.8" fill="#2dae72" style="animation-delay:-1.61s"/>
<circle class="d" cx="371.0" cy="629.0" r="10.4" fill="#2cab70" style="animation-delay:-1.70s"/>
<circle class="d" cx="414.0" cy="629.0" r="9.6" fill="#2ba56c" style="animation-delay:-1.78s"/>
<circle class="d" cx="457.0" cy="629.0" r="8.6" fill="#299e68" style="animation-delay:-1.87s"/>
<circle class="d" cx="500.0" cy="629.0" r="7.3" fill="#269563" style="animation-delay:-1.95s"/>
<circle class="d" cx="543.0" cy="629.0" r="5.8" fill="#238a5d" style="animation-delay:-2.04s"/>
<circle class="d" cx="586.0" cy="629.0" r="4.0" fill="#207e56" style="animation-delay:-2.13s"/>
<circle class="d" cx="629.0" cy="629.0" r="3.8" fill="#207d56" style="animation-delay:-2.21s"/>
<circle class="d" cx="672.0" cy="629.0" r="3.8" fill="#207d56" style="animation-delay:-2.29s"/>
<circle class="d" cx="715.0" cy="629.0" r="3.8" fill="#207d56" style="animation-delay:-2.38s"/>
<circle class="d" cx="758.0" cy="629.0" r="3.8" fill="#207d56" style="animation-delay:-2.46s"/>
<circle class="d" cx="801.0" cy="629.0" r="2.8" fill="#165942" style="animation-delay:-2.55s"/>
<circle class="d" cx="844.0" cy="629.0" r="2.6" fill="#165640" style="animation-delay:-2.63s"/>
<circle class="d" cx="887.0" cy="629.0" r="2.4" fill="#15533e" style="animation-delay:-2.72s"/>
<circle class="d" cx="930.0" cy="629.0" r="2.2" fill="#14503d" style="animation-delay:-2.80s"/>
<circle class="d" cx="70.0" cy="672.0" r="2.2" fill="#144f3c" style="animation-delay:-1.19s"/>
<circle class="d" cx="113.0" cy="672.0" r="2.3" fill="#14523e" style="animation-delay:-1.27s"/>
<circle class="d" cx="156.0" cy="672.0" r="2.5" fill="#15543f" style="animation-delay:-1.36s"/>
<circle class="d" cx="199.0" cy="672.0" r="2.7" fill="#165741" style="animation-delay:-1.44s"/>
<circle class="d" cx="242.0" cy="672.0" r="2.8" fill="#175a42" style="animation-delay:-1.53s"/>
<circle class="d" cx="285.0" cy="672.0" r="7.7" fill="#279764" style="animation-delay:-1.61s"/>
<circle class="d" cx="328.0" cy="672.0" r="8.1" fill="#289a66" style="animation-delay:-1.70s"/>
<circle class="d" cx="371.0" cy="672.0" r="7.8" fill="#279865" style="animation-delay:-1.78s"/>
<circle class="d" cx="414.0" cy="672.0" r="7.1" fill="#269362" style="animation-delay:-1.87s"/>
<circle class="d" cx="457.0" cy="672.0" r="6.1" fill="#248c5e" style="animation-delay:-1.95s"/>
<circle class="d" cx="500.0" cy="672.0" r="4.7" fill="#218359" style="animation-delay:-2.04s"/>
<circle class="d" cx="543.0" cy="672.0" r="3.8" fill="#207d56" style="animation-delay:-2.13s"/>
<circle class="d" cx="586.0" cy="672.0" r="3.8" fill="#207d56" style="animation-delay:-2.21s"/>
<circle class="d" cx="629.0" cy="672.0" r="3.8" fill="#207d56" style="animation-delay:-2.29s"/>
<circle class="d" cx="672.0" cy="672.0" r="3.8" fill="#207d56" style="animation-delay:-2.38s"/>
<circle class="d" cx="715.0" cy="672.0" r="3.8" fill="#207d56" style="animation-delay:-2.46s"/>
<circle class="d" cx="758.0" cy="672.0" r="2.8" fill="#175a42" style="animation-delay:-2.55s"/>
<circle class="d" cx="801.0" cy="672.0" r="2.7" fill="#165741" style="animation-delay:-2.63s"/>
<circle class="d" cx="844.0" cy="672.0" r="2.5" fill="#15543f" style="animation-delay:-2.72s"/>
<circle class="d" cx="887.0" cy="672.0" r="2.3" fill="#14523e" style="animation-delay:-2.80s"/>
<circle class="d" cx="930.0" cy="672.0" r="2.2" fill="#144f3c" style="animation-delay:-2.89s"/>
<circle class="d" cx="70.0" cy="715.0" r="2.1" fill="#134e3c" style="animation-delay:-1.27s"/>
<circle class="d" cx="113.0" cy="715.0" r="2.2" fill="#14503d" style="animation-delay:-1.36s"/>
<circle class="d" cx="156.0" cy="715.0" r="2.4" fill="#15533e" style="animation-delay:-1.44s"/>
<circle class="d" cx="199.0" cy="715.0" r="2.5" fill="#155540" style="animation-delay:-1.53s"/>
<circle class="d" cx="242.0" cy="715.0" r="2.7" fill="#165841" style="animation-delay:-1.61s"/>
<circle class="d" cx="285.0" cy="715.0" r="2.9" fill="#175a43" style="animation-delay:-1.70s"/>
<circle class="d" cx="328.0" cy="715.0" r="4.2" fill="#207f57" style="animation-delay:-1.78s"/>
<circle class="d" cx="371.0" cy="715.0" r="4.4" fill="#218158" style="animation-delay:-1.87s"/>
<circle class="d" cx="414.0" cy="715.0" r="3.8" fill="#207d56" style="animation-delay:-1.95s"/>
<circle class="d" cx="457.0" cy="715.0" r="3.8" fill="#207d56" style="animation-delay:-2.04s"/>
<circle class="d" cx="500.0" cy="715.0" r="3.8" fill="#207d56" style="animation-delay:-2.13s"/>
<circle class="d" cx="543.0" cy="715.0" r="3.8" fill="#207d56" style="animation-delay:-2.21s"/>
<circle class="d" cx="586.0" cy="715.0" r="3.8" fill="#207d56" style="animation-delay:-2.29s"/>
<circle class="d" cx="629.0" cy="715.0" r="3.8" fill="#207d56" style="animation-delay:-2.38s"/>
<circle class="d" cx="672.0" cy="715.0" r="3.8" fill="#207d56" style="animation-delay:-2.46s"/>
<circle class="d" cx="715.0" cy="715.0" r="2.9" fill="#175a43" style="animation-delay:-2.55s"/>
<circle class="d" cx="758.0" cy="715.0" r="2.7" fill="#165841" style="animation-delay:-2.63s"/>
<circle class="d" cx="801.0" cy="715.0" r="2.5" fill="#155540" style="animation-delay:-2.72s"/>
<circle class="d" cx="844.0" cy="715.0" r="2.4" fill="#15533e" style="animation-delay:-2.80s"/>
<circle class="d" cx="887.0" cy="715.0" r="2.2" fill="#14503d" style="animation-delay:-2.89s"/>
<circle class="d" cx="930.0" cy="715.0" r="2.1" fill="#134e3c" style="animation-delay:-2.98s"/>
<circle class="d" cx="70.0" cy="758.0" r="2.0" fill="#134d3b" style="animation-delay:-1.36s"/>
<circle class="d" cx="113.0" cy="758.0" r="2.2" fill="#144f3c" style="animation-delay:-1.44s"/>
<circle class="d" cx="156.0" cy="758.0" r="2.3" fill="#14513d" style="animation-delay:-1.53s"/>
<circle class="d" cx="199.0" cy="758.0" r="2.4" fill="#15533f" style="animation-delay:-1.61s"/>
<circle class="d" cx="242.0" cy="758.0" r="2.6" fill="#155540" style="animation-delay:-1.70s"/>
<circle class="d" cx="285.0" cy="758.0" r="2.7" fill="#165741" style="animation-delay:-1.78s"/>
<circle class="d" cx="328.0" cy="758.0" r="2.8" fill="#165942" style="animation-delay:-1.87s"/>
<circle class="d" cx="371.0" cy="758.0" r="3.8" fill="#207d56" style="animation-delay:-1.95s"/>
<circle class="d" cx="414.0" cy="758.0" r="3.8" fill="#207d56" style="animation-delay:-2.04s"/>
<circle class="d" cx="457.0" cy="758.0" r="3.8" fill="#207d56" style="animation-delay:-2.13s"/>
<circle class="d" cx="500.0" cy="758.0" r="3.8" fill="#207d56" style="animation-delay:-2.21s"/>
<circle class="d" cx="543.0" cy="758.0" r="3.8" fill="#207d56" style="animation-delay:-2.29s"/>
<circle class="d" cx="586.0" cy="758.0" r="3.8" fill="#207d56" style="animation-delay:-2.38s"/>
<circle class="d" cx="629.0" cy="758.0" r="3.8" fill="#207d56" style="animation-delay:-2.46s"/>
<circle class="d" cx="672.0" cy="758.0" r="2.8" fill="#165942" style="animation-delay:-2.55s"/>
<circle class="d" cx="715.0" cy="758.0" r="2.7" fill="#165741" style="animation-delay:-2.63s"/>
<circle class="d" cx="758.0" cy="758.0" r="2.6" fill="#155540" style="animation-delay:-2.72s"/>
<circle class="d" cx="801.0" cy="758.0" r="2.4" fill="#15533f" style="animation-delay:-2.80s"/>
<circle class="d" cx="844.0" cy="758.0" r="2.3" fill="#14513d" style="animation-delay:-2.89s"/>
<circle class="d" cx="887.0" cy="758.0" r="2.2" fill="#144f3c" style="animation-delay:-2.98s"/>
<circle class="d" cx="930.0" cy="758.0" r="2.0" fill="#134d3b" style="animation-delay:-3.06s"/>
<circle class="d" cx="70.0" cy="801.0" r="2.0" fill="#134c3a" style="animation-delay:-1.44s"/>
<circle class="d" cx="113.0" cy="801.0" r="2.1" fill="#134d3b" style="animation-delay:-1.53s"/>
<circle class="d" cx="156.0" cy="801.0" r="2.2" fill="#144f3c" style="animation-delay:-1.61s"/>
<circle class="d" cx="199.0" cy="801.0" r="2.3" fill="#14513d" style="animation-delay:-1.70s"/>
<circle class="d" cx="242.0" cy="801.0" r="2.4" fill="#15533e" style="animation-delay:-1.78s"/>
<circle class="d" cx="285.0" cy="801.0" r="2.5" fill="#15553f" style="animation-delay:-1.87s"/>
<circle class="d" cx="328.0" cy="801.0" r="2.6" fill="#165640" style="animation-delay:-1.95s"/>
<circle class="d" cx="371.0" cy="801.0" r="2.7" fill="#165841" style="animation-delay:-2.04s"/>
<circle class="d" cx="414.0" cy="801.0" r="2.8" fill="#165942" style="animation-delay:-2.13s"/>
<circle class="d" cx="457.0" cy="801.0" r="2.8" fill="#165a42" style="animation-delay:-2.21s"/>
<circle class="d" cx="500.0" cy="801.0" r="2.8" fill="#175a42" style="animation-delay:-2.29s"/>
<circle class="d" cx="543.0" cy="801.0" r="2.8" fill="#165a42" style="animation-delay:-2.38s"/>
<circle class="d" cx="586.0" cy="801.0" r="2.8" fill="#165942" style="animation-delay:-2.46s"/>
<circle class="d" cx="629.0" cy="801.0" r="2.7" fill="#165841" style="animation-delay:-2.55s"/>
<circle class="d" cx="672.0" cy="801.0" r="2.6" fill="#165640" style="animation-delay:-2.63s"/>
<circle class="d" cx="715.0" cy="801.0" r="2.5" fill="#15553f" style="animation-delay:-2.72s"/>
<circle class="d" cx="758.0" cy="801.0" r="2.4" fill="#15533e" style="animation-delay:-2.80s"/>
<circle class="d" cx="801.0" cy="801.0" r="2.3" fill="#14513d" style="animation-delay:-2.89s"/>
<circle class="d" cx="844.0" cy="801.0" r="2.2" fill="#144f3c" style="animation-delay:-2.98s"/>
<circle class="d" cx="887.0" cy="801.0" r="2.1" fill="#134d3b" style="animation-delay:-3.06s"/>
<circle class="d" cx="930.0" cy="801.0" r="2.0" fill="#134c3a" style="animation-delay:-3.15s"/>
<circle class="d" cx="70.0" cy="844.0" r="1.9" fill="#134b3a" style="animation-delay:-1.53s"/>
<circle class="d" cx="113.0" cy="844.0" r="2.0" fill="#134c3b" style="animation-delay:-1.61s"/>
<circle class="d" cx="156.0" cy="844.0" r="2.1" fill="#134e3b" style="animation-delay:-1.70s"/>
<circle class="d" cx="199.0" cy="844.0" r="2.2" fill="#144f3c" style="animation-delay:-1.78s"/>
<circle class="d" cx="242.0" cy="844.0" r="2.3" fill="#14513d" style="animation-delay:-1.87s"/>
<circle class="d" cx="285.0" cy="844.0" r="2.4" fill="#15523e" style="animation-delay:-1.95s"/>
<circle class="d" cx="328.0" cy="844.0" r="2.4" fill="#15533f" style="animation-delay:-2.04s"/>
<circle class="d" cx="371.0" cy="844.0" r="2.5" fill="#15553f" style="animation-delay:-2.13s"/>
<circle class="d" cx="414.0" cy="844.0" r="2.6" fill="#155640" style="animation-delay:-2.21s"/>
<circle class="d" cx="457.0" cy="844.0" r="2.6" fill="#165640" style="animation-delay:-2.29s"/>
<circle class="d" cx="500.0" cy="844.0" r="2.6" fill="#165640" style="animation-delay:-2.38s"/>
<circle class="d" cx="543.0" cy="844.0" r="2.6" fill="#165640" style="animation-delay:-2.46s"/>
<circle class="d" cx="586.0" cy="844.0" r="2.6" fill="#155640" style="animation-delay:-2.55s"/>
<circle class="d" cx="629.0" cy="844.0" r="2.5" fill="#15553f" style="animation-delay:-2.63s"/>
<circle class="d" cx="672.0" cy="844.0" r="2.4" fill="#15533f" style="animation-delay:-2.72s"/>
<circle class="d" cx="715.0" cy="844.0" r="2.4" fill="#15523e" style="animation-delay:-2.80s"/>
<circle class="d" cx="758.0" cy="844.0" r="2.3" fill="#14513d" style="animation-delay:-2.89s"/>
<circle class="d" cx="801.0" cy="844.0" r="2.2" fill="#144f3c" style="animation-delay:-2.98s"/>
<circle class="d" cx="844.0" cy="844.0" r="2.1" fill="#134e3b" style="animation-delay:-3.06s"/>
<circle class="d" cx="887.0" cy="844.0" r="2.0" fill="#134c3b" style="animation-delay:-3.15s"/>
<circle class="d" cx="930.0" cy="844.0" r="1.9" fill="#134b3a" style="animation-delay:-3.23s"/>
<circle class="d" cx="70.0" cy="887.0" r="1.8" fill="#124a39" style="animation-delay:-1.61s"/>
<circle class="d" cx="113.0" cy="887.0" r="1.9" fill="#134b3a" style="animation-delay:-1.70s"/>
<circle class="d" cx="156.0" cy="887.0" r="2.0" fill="#134c3a" style="animation-delay:-1.78s"/>
<circle class="d" cx="199.0" cy="887.0" r="2.0" fill="#134d3b" style="animation-delay:-1.87s"/>
<circle class="d" cx="242.0" cy="887.0" r="2.1" fill="#144e3c" style="animation-delay:-1.95s"/>
<circle class="d" cx="285.0" cy="887.0" r="2.2" fill="#14503d" style="animation-delay:-2.04s"/>
<circle class="d" cx="328.0" cy="887.0" r="2.3" fill="#14513d" style="animation-delay:-2.13s"/>
<circle class="d" cx="371.0" cy="887.0" r="2.3" fill="#14523e" style="animation-delay:-2.21s"/>
<circle class="d" cx="414.0" cy="887.0" r="2.4" fill="#15523e" style="animation-delay:-2.29s"/>
<circle class="d" cx="457.0" cy="887.0" r="2.4" fill="#15533e" style="animation-delay:-2.38s"/>
<circle class="d" cx="500.0" cy="887.0" r="2.4" fill="#15533e" style="animation-delay:-2.46s"/>
<circle class="d" cx="543.0" cy="887.0" r="2.4" fill="#15533e" style="animation-delay:-2.55s"/>
<circle class="d" cx="586.0" cy="887.0" r="2.4" fill="#15523e" style="animation-delay:-2.63s"/>
<circle class="d" cx="629.0" cy="887.0" r="2.3" fill="#14523e" style="animation-delay:-2.72s"/>
<circle class="d" cx="672.0" cy="887.0" r="2.3" fill="#14513d" style="animation-delay:-2.80s"/>
<circle class="d" cx="715.0" cy="887.0" r="2.2" fill="#14503d" style="animation-delay:-2.89s"/>
<circle class="d" cx="758.0" cy="887.0" r="2.1" fill="#144e3c" style="animation-delay:-2.98s"/>
<circle class="d" cx="801.0" cy="887.0" r="2.0" fill="#134d3b" style="animation-delay:-3.06s"/>
<circle class="d" cx="844.0" cy="887.0" r="2.0" fill="#134c3a" style="animation-delay:-3.15s"/>
<circle class="d" cx="887.0" cy="887.0" r="1.9" fill="#134b3a" style="animation-delay:-3.23s"/>
<circle class="d" cx="930.0" cy="887.0" r="1.8" fill="#124a39" style="animation-delay:-3.31s"/>
<circle class="d" cx="70.0" cy="930.0" r="1.7" fill="#124939" style="animation-delay:-1.70s"/>
<circle class="d" cx="113.0" cy="930.0" r="1.8" fill="#124939" style="animation-delay:-1.78s"/>
<circle class="d" cx="156.0" cy="930.0" r="1.9" fill="#124a3a" style="animation-delay:-1.87s"/>
<circle class="d" cx="199.0" cy="930.0" r="1.9" fill="#134c3a" style="animation-delay:-1.95s"/>
<circle class="d" cx="242.0" cy="930.0" r="2.0" fill="#134d3b" style="animation-delay:-2.04s"/>
<circle class="d" cx="285.0" cy="930.0" r="2.1" fill="#134e3b" style="animation-delay:-2.13s"/>
<circle class="d" cx="328.0" cy="930.0" r="2.1" fill="#144e3c" style="animation-delay:-2.21s"/>
<circle class="d" cx="371.0" cy="930.0" r="2.2" fill="#144f3c" style="animation-delay:-2.29s"/>
<circle class="d" cx="414.0" cy="930.0" r="2.2" fill="#14503d" style="animation-delay:-2.38s"/>
<circle class="d" cx="457.0" cy="930.0" r="2.2" fill="#14503d" style="animation-delay:-2.46s"/>
<circle class="d" cx="500.0" cy="930.0" r="2.2" fill="#14503d" style="animation-delay:-2.55s"/>
<circle class="d" cx="543.0" cy="930.0" r="2.2" fill="#14503d" style="animation-delay:-2.63s"/>
<circle class="d" cx="586.0" cy="930.0" r="2.2" fill="#14503d" style="animation-delay:-2.72s"/>
<circle class="d" cx="629.0" cy="930.0" r="2.2" fill="#144f3c" style="animation-delay:-2.80s"/>
<circle class="d" cx="672.0" cy="930.0" r="2.1" fill="#144e3c" style="animation-delay:-2.89s"/>
<circle class="d" cx="715.0" cy="930.0" r="2.1" fill="#134e3b" style="animation-delay:-2.98s"/>
<circle class="d" cx="758.0" cy="930.0" r="2.0" fill="#134d3b" style="animation-delay:-3.06s"/>
<circle class="d" cx="801.0" cy="930.0" r="1.9" fill="#134c3a" style="animation-delay:-3.15s"/>
<circle class="d" cx="844.0" cy="930.0" r="1.9" fill="#124a3a" style="animation-delay:-3.23s"/>
<circle class="d" cx="887.0" cy="930.0" r="1.8" fill="#124939" style="animation-delay:-3.31s"/>
<circle class="d" cx="930.0" cy="930.0" r="1.7" fill="#124939" style="animation-delay:-3.40s"/>
</g>
<g class="sheen"><rect x="380" y="90" width="70" height="760" fill="#90ebcd" opacity="0.05" transform="rotate(14 500 470)"/></g>
<g>
<rect x="70" y="892" width="150" height="40" rx="20" fill="#0c322c" stroke="#30ba78" stroke-width="1.5" opacity="0.9"/>
<circle cx="98" cy="912" r="7" fill="#90ebcd"/>
<text class="cap" x="118" y="918" font-size="19" letter-spacing="1.5" fill="#90ebcd">HALFTONE</text>
</g>
</svg>